<svg width="1024" height="1024" viewBox="0 0 1024 1024" fill="none" xmlns="http://www.w3.org/2000/svg">
<g clip-path="url(#clip0_49_2)">
<path d="M0 0C337.92 0 675.84 0 1024 0C1024 337.92 1024 675.84 1024 1024C686.08 1024 348.16 1024 0 1024C0 686.08 0 348.16 0 0Z" fill="#181B1F"/>
<path d="M240 345C243.134 345 243.134 345 245.068 346.913C245.852 347.863 246.636 348.813 247.443 349.791C253.122 356.473 259.062 362.867 265.072 369.25C271.544 376.138 277.941 383.055 284.115 390.212C288.239 394.896 292.471 399.477 296.706 404.06C297.508 404.93 298.311 405.799 299.137 406.695C299.908 407.528 300.68 408.361 301.475 409.219C302.16 409.958 302.845 410.698 303.551 411.46C305.879 413.996 305.879 413.996 309.045 416.545C312.918 421.074 312.846 423.342 312.801 429.238C312.803 432.04 312.803 432.04 312.805 434.9C312.76 437.967 312.76 437.967 312.714 441.096C312.705 443.276 312.698 445.456 312.695 447.635C312.681 452.328 312.65 457.021 312.604 461.713C312.535 469.145 312.522 476.575 312.519 484.007C312.502 505.138 312.419 526.269 312.26 547.4C312.173 559.072 312.137 570.743 312.156 582.415C312.165 589.792 312.111 597.165 312.01 604.54C311.963 609.148 311.974 613.755 312.002 618.363C312.004 621.491 311.936 624.62 311.865 627.748C311.999 638.541 313.228 644.571 320.549 652.752C322.915 655.027 325.312 657.272 327.753 659.468C341.405 674.572 341.405 674.572 347.144 681.175C351.024 685.631 354.996 689.988 359.016 694.318C366.621 702.515 373.903 710.88 380.921 719.592C384.561 724.104 388.285 728.549 392 733C341.84 733 291.68 733 240 733C240 604.96 240 476.92 240 345Z" fill="#56E0A0"/>
<path d="M781.854 345C782.892 345 783.93 345 785 345C785 473.04 785 601.08 785 733C735.17 733 685.34 733 634 733C644.582 718.966 644.582 718.966 650.417 712.661C654.63 708.073 658.815 703.475 662.902 698.776C668.332 692.571 673.932 686.526 679.533 680.474C684.441 675.162 689.301 669.823 693.971 664.301C696.917 661.032 696.917 661.032 700.476 657.795C707.904 650.703 711.964 645.481 712.761 635.096C712.796 631.155 712.754 627.212 712.65 623.272C712.643 621.086 712.643 618.9 712.649 616.714C712.648 612.035 712.604 607.36 712.524 602.682C712.4 595.277 712.382 587.874 712.378 580.468C712.357 566.089 712.232 551.711 712.094 537.332C711.921 519.019 711.786 500.706 711.762 482.392C711.749 475.039 711.681 467.688 711.568 460.335C711.508 455.755 711.494 451.176 711.492 446.596C711.477 443.477 711.406 440.36 711.333 437.243C711.373 427.784 711.644 421.591 718.022 414.266C719.862 412.519 721.735 410.805 723.656 409.145C724.726 407.984 725.795 406.822 726.897 405.625C727.758 404.721 728.619 403.818 729.506 402.887C730.975 401.338 730.975 401.338 732.473 399.758C734.46 397.672 736.446 395.586 738.433 393.5C744.298 387.316 750.003 381.027 755.606 374.607C760.463 369.1 765.514 363.772 770.549 358.427C773.849 354.899 777.016 351.422 779.863 347.518C780.52 346.687 781.177 345.856 781.854 345Z" fill="#16B2F5"/>
<path d="M235 294.382C246.94 293.906 258.879 293.545 270.827 293.325C276.378 293.219 281.922 293.076 287.469 292.843C326.297 291.254 326.297 291.254 336.096 298.781C341.012 303.586 344.42 308.875 347.903 314.776C349.779 317.01 351.693 319.214 353.686 321.345C354.517 322.306 355.347 323.266 356.203 324.256C359.408 327.931 362.67 331.55 365.937 335.17C371.06 340.849 376.122 346.575 381.14 352.347C384.33 355.973 387.58 359.541 390.83 363.114C395.851 368.666 400.641 374.344 405.335 380.174C409.263 385.035 413.19 389.658 417.684 393.999C422.02 398.188 425.781 402.621 429.543 407.334C435.472 414.716 441.755 421.636 448.262 428.512C455.745 436.425 462.786 444.504 469.578 453.024C475.18 459.72 481.204 465.998 487.202 472.337C493.957 479.515 500.208 486.925 506.362 494.628C509.928 498.94 513.77 502.817 517.785 506.706C521.469 510.374 524.813 514.303 528.205 518.239C532.096 522.682 536.093 527.022 540.094 531.365C541.575 532.985 543.055 534.605 544.535 536.225C546.961 538.87 549.402 541.503 551.873 544.106C558.041 550.793 558.041 550.793 557.993 554.505C555.691 559.662 551.904 563.337 548.033 567.349C546.321 569.163 544.61 570.977 542.9 572.791C541.59 574.168 541.59 574.168 540.255 575.573C536.204 579.851 532.217 584.186 528.235 588.528C526.877 590 525.519 591.472 524.119 592.989C520.634 596.889 517.344 600.881 514.122 605C508.357 602.63 505.155 599.276 501.088 594.607C499.848 593.195 498.609 591.784 497.333 590.329C496.146 588.958 494.96 587.587 493.737 586.175C491.908 584.082 490.079 581.991 488.249 579.9C487.375 578.896 486.502 577.893 485.603 576.86C482.334 573.139 479.022 569.458 475.704 565.78C470.575 560.095 465.509 554.362 460.482 548.585C457.391 545.068 454.25 541.6 451.104 538.131C445.464 531.886 439.984 525.525 434.541 519.109C427.063 510.309 419.325 501.792 411.433 493.362C406.172 487.742 401.02 482.053 395.988 476.225C390.504 469.915 384.867 463.74 379.266 457.535C365.829 442.649 365.829 442.649 359.762 435.67C355.355 430.606 350.858 425.63 346.335 420.668C340.92 414.728 335.577 408.738 330.305 402.67C325.865 397.603 321.337 392.616 316.823 387.614C313.889 384.342 310.991 381.044 308.113 377.723C303.433 372.345 298.631 367.085 293.804 361.839C288.093 355.633 282.459 349.374 276.935 343.002C273.709 339.311 270.43 335.671 267.146 332.032C262.041 326.373 256.996 320.67 251.998 314.917C247.302 309.58 242.497 304.341 237.701 299.094C235 295.95 235 295.95 235 294.382Z" fill="#57E1A1"/>
<path d="M695.758 294C726.858 294 757.958 294 790 294C787.206 299.57 785.421 302.007 781.067 306.135C775.9 311.156 771.101 316.332 766.397 321.781C762.62 326.09 758.743 330.305 754.856 334.515C748.36 341.552 741.918 348.634 735.516 355.757C732.194 359.421 728.834 363.048 725.466 366.67C719.185 373.432 713.129 380.262 707.342 387.458C701.906 394.198 696.088 400.219 689.874 406.241C684.73 411.512 680.233 417.251 675.627 422.988C672.545 426.676 669.37 430.02 665.915 433.355C661.278 437.841 657.184 442.511 653.153 447.545C646.294 456.068 638.913 464.005 631.397 471.954C625.828 477.846 620.362 483.794 615.057 489.926C608.105 497.925 600.945 505.747 593.742 513.522C592.572 514.787 592.572 514.787 591.379 516.078C589.855 517.723 588.328 519.365 586.798 521.004C583.511 524.553 580.652 527.968 577.956 532C576.919 532 575.882 532 574.814 532C572.52 529.704 572.52 529.704 569.863 526.526C563.147 518.652 556.056 511.177 548.925 503.678C546.019 500.608 543.138 497.516 540.259 494.421C539.307 493.432 538.356 492.444 537.376 491.425C536.499 490.478 535.622 489.531 534.718 488.555C533.931 487.723 533.143 486.891 532.332 486.033C530.835 483.461 530.835 483.461 531.205 480.228C532.898 475.953 535.54 473.301 538.688 469.956C539.968 468.579 541.247 467.202 542.566 465.784C544.534 463.683 544.534 463.683 546.542 461.539C548.904 458.935 551.26 456.325 553.61 453.711C557.081 449.862 560.555 446.017 564.046 442.187C570.781 434.784 577.357 427.271 583.846 419.655C591.338 410.87 599.089 402.368 606.996 393.953C612.227 388.384 617.346 382.745 622.346 376.968C625.819 373.009 629.374 369.129 632.93 365.243C638.358 359.31 643.713 353.326 648.999 347.267C654.568 340.932 660.253 334.7 665.915 328.447C669.434 324.551 672.952 320.653 676.468 316.753C678.98 313.974 681.501 311.202 684.027 308.435C685.307 307.03 686.586 305.625 687.905 304.178C689.071 302.902 690.237 301.626 691.439 300.312C694.256 297.315 694.256 297.315 695.758 294Z" fill="#17B3F6"/>
<path d="M343.426 456C349.318 460.838 354.253 465.257 358.926 471.339C366.06 480.297 373.77 488.603 381.652 496.902C387.479 503.047 393.143 509.296 398.686 515.699C401.737 519.22 404.843 522.689 407.962 526.149C409.144 527.463 410.326 528.777 411.544 530.131C412.743 531.461 413.941 532.791 415.176 534.161C422.613 542.414 430.017 550.689 437.305 559.075C440.557 562.783 443.851 566.45 447.151 570.115C452.242 575.769 457.271 581.47 462.262 587.213C465.513 590.921 468.808 594.588 472.108 598.253C484.241 611.739 484.241 611.739 490.045 618.575C491.645 620.284 491.645 620.284 493.277 622.029C496.946 627.35 497.042 630.189 496.993 636.606C496.992 638.639 496.992 640.673 496.991 642.768C496.959 644.973 496.927 647.177 496.894 649.381C496.882 651.648 496.873 653.915 496.867 656.182C496.843 662.132 496.782 668.08 496.713 674.03C496.649 680.107 496.62 686.185 496.589 692.263C496.522 704.176 496.416 716.088 496.284 728C494.538 726.518 492.795 725.033 491.053 723.547C490.082 722.72 489.111 721.894 488.11 721.042C484.641 717.981 481.586 714.678 478.542 711.195C477.354 709.847 476.165 708.499 474.941 707.11C473.749 705.75 472.556 704.39 471.328 702.989C469.024 700.412 466.717 697.839 464.406 695.27C463.254 693.986 462.102 692.703 460.915 691.38C457.055 687.096 453.177 682.829 449.296 678.563C443.977 672.707 438.729 666.801 433.546 660.824C430.316 657.132 427.038 653.485 423.755 649.839C418.664 644.185 413.635 638.484 408.644 632.741C405.393 629.033 402.098 625.366 398.798 621.701C393.707 616.047 388.678 610.346 383.688 604.603C380.436 600.895 377.142 597.228 373.842 593.563C368.77 587.93 363.707 582.295 358.824 576.497C355.973 573.192 355.973 573.192 352.694 570.404C345.297 563.462 342.574 558.316 342.009 548.104C341.966 543.807 342.078 539.524 342.207 535.23C342.231 532.937 342.248 530.643 342.261 528.35C342.308 522.358 342.431 516.37 342.569 510.38C342.698 504.249 342.754 498.119 342.817 491.988C342.95 479.99 343.162 467.996 343.426 456Z" fill="#57E0A2"/>
<path d="M681.647 457C681.902 470.059 682.097 483.117 682.216 496.178C682.274 502.244 682.351 508.308 682.476 514.373C682.596 520.234 682.661 526.093 682.69 531.954C682.71 534.183 682.749 536.411 682.809 538.639C683.312 558.254 683.312 558.254 676.387 566.228C674.513 567.975 672.606 569.687 670.659 571.353C669.036 573.079 667.43 574.823 665.852 576.59C664.316 578.24 662.779 579.888 661.241 581.535C655.259 587.97 649.357 594.453 643.607 601.097C640.193 604.979 636.686 608.769 633.183 612.57C628.11 618.112 623.254 623.737 618.566 629.606C611.525 638.329 603.864 646.387 596.135 654.503C589.219 661.802 582.823 669.305 576.552 677.163C572.189 682.381 567.393 687.069 562.523 691.812C558.571 695.741 554.945 699.881 551.309 704.099C547.3 708.696 543.211 713.214 539.101 717.72C538.346 718.555 537.592 719.389 536.814 720.249C531.323 726.251 531.323 726.251 527.819 728C527.453 714.995 527.175 701.993 527.005 688.984C526.924 682.942 526.813 676.904 526.635 670.863C526.463 665.023 526.37 659.186 526.329 653.343C526.301 651.125 526.244 648.908 526.159 646.692C525.807 637.167 525.53 629.365 531.235 621.423C535.158 617.501 539.21 614.007 543.515 610.514C545.293 608.63 547.038 606.713 548.715 604.738C549.575 603.739 550.435 602.739 551.321 601.709C552.371 600.479 553.421 599.25 554.503 597.983C557.767 594.191 561.039 590.407 564.314 586.626C565.195 585.607 566.076 584.589 566.984 583.539C572.529 577.155 578.174 570.885 583.935 564.695C589.156 559.065 594.144 553.356 598.945 547.366C605.63 539.065 612.862 531.38 620.189 523.65C625.475 518.044 630.528 512.366 635.342 506.344C641.981 498.042 649.179 490.353 656.476 482.631C662.215 476.558 667.845 470.424 673.277 464.074C679.507 457 679.507 457 681.647 457Z" fill="#17B2F6"/>
</g>
<defs>
<clipPath id="clip0_49_2">
<rect width="1024" height="1024" fill="white"/>
</clipPath>
</defs>
</svg>
